<svg id="visual" viewBox="0 0 350 600" xmlns="http://www.w3.org/2000/svg" xmlns:xlink="http://www.w3.org/1999/xlink"
  version="1.1" preserveAspectRatio="none">
  <defs>
    <linearGradient id="grad1_0" x1="33.3%" y1="0%" x2="100%" y2="100%">
      <stop class="stop-color-01" offset="20%" stop-opacity="1"></stop>
      <stop class="stop-color-01" offset="80%" stop-opacity="1"></stop>
    </linearGradient>
  </defs>
  <defs>
    <linearGradient id="grad1_1" x1="33.3%" y1="0%" x2="100%" y2="100%">
      <stop class="stop-color-01" offset="20%" stop-opacity="1"></stop>
      <stop class="stop-color-02" offset="80%" stop-opacity="1"></stop>
    </linearGradient>
  </defs>
  <defs>
    <linearGradient id="grad1_2" x1="33.3%" y1="0%" x2="100%" y2="100%">
      <stop class="stop-color-03" offset="20%" stop-opacity="1"></stop>
      <stop class="stop-color-02" offset="80%" stop-opacity="1"></stop>
    </linearGradient>
  </defs>
  <defs>
    <linearGradient id="grad1_3" x1="33.3%" y1="0%" x2="100%" y2="100%">
      <stop class="stop-color-03" offset="20%" stop-opacity="1"></stop>
      <stop class="stop-color-04" offset="80%" stop-opacity="1"></stop>
    </linearGradient>
  </defs>
  <defs>
    <linearGradient id="grad1_4" x1="33.3%" y1="0%" x2="100%" y2="100%">
      <stop class="stop-color-05" offset="20%" stop-opacity="1"></stop>
      <stop class="stop-color-04" offset="80%" stop-opacity="1"></stop>
    </linearGradient>
  </defs>
  <defs>
    <linearGradient id="grad1_5" x1="33.3%" y1="0%" x2="100%" y2="100%">
      <stop class="stop-color-05" offset="20%" stop-opacity="1"></stop>
      <stop class="stop-color-06" offset="80%" stop-opacity="1"></stop>
    </linearGradient>
  </defs>
  <defs>
    <linearGradient id="grad2_0" x1="0%" y1="0%" x2="66.7%" y2="100%">
      <stop class="stop-color-01" offset="20%" stop-opacity="1"></stop>
      <stop class="stop-color-01" offset="80%" stop-opacity="1"></stop>
    </linearGradient>
  </defs>
  <defs>
    <linearGradient id="grad2_1" x1="0%" y1="0%" x2="66.7%" y2="100%">
      <stop class="stop-color-02" offset="20%" stop-opacity="1"></stop>
      <stop class="stop-color-01" offset="80%" stop-opacity="1"></stop>
    </linearGradient>
  </defs>
  <defs>
    <linearGradient id="grad2_2" x1="0%" y1="0%" x2="66.7%" y2="100%">
      <stop class="stop-color-02" offset="20%" stop-opacity="1"></stop>
      <stop class="stop-color-03" offset="80%" stop-opacity="1"></stop>
    </linearGradient>
  </defs>
  <defs>
    <linearGradient id="grad2_3" x1="0%" y1="0%" x2="66.7%" y2="100%">
      <stop class="stop-color-04" offset="20%" stop-opacity="1"></stop>
      <stop class="stop-color-03" offset="80%" stop-opacity="1"></stop>
    </linearGradient>
  </defs>
  <defs>
    <linearGradient id="grad2_4" x1="0%" y1="0%" x2="66.7%" y2="100%">
      <stop class="stop-color-04" offset="20%" stop-opacity="1"></stop>
      <stop class="stop-color-05" offset="80%" stop-opacity="1"></stop>
    </linearGradient>
  </defs>
  <defs>
    <linearGradient id="grad2_5" x1="0%" y1="0%" x2="66.7%" y2="100%">
      <stop class="stop-color-06" offset="20%" stop-opacity="1"></stop>
      <stop class="stop-color-05" offset="80%" stop-opacity="1"></stop>
    </linearGradient>
  </defs>
  <g id="top-right" transform="translate(350, 0)">
    <path id="top-right-01"
      d="M0 243.4C-24.7 219.9 -49.3 196.4 -76.5 184.8C-103.8 173.1 -133.6 173.3 -160.5 160.5C-187.5 147.7 -211.5 122 -224.8 93.1C-238.2 64.2 -240.8 32.1 -243.4 0L0 0Z">
    </path>
    <path id="top-right-02"
      d="M0 202.8C-20.5 183.3 -41.1 163.7 -63.8 154C-86.5 144.3 -111.3 144.4 -133.8 133.8C-156.2 123.1 -176.3 101.7 -187.4 77.6C-198.5 53.5 -200.6 26.8 -202.8 0L0 0Z">
    </path>
    <path id="top-right-03"
      d="M0 162.2C-16.4 146.6 -32.9 131 -51 123.2C-69.2 115.4 -89.1 115.5 -107 107C-125 98.5 -141 81.4 -149.9 62.1C-158.8 42.8 -160.5 21.4 -162.2 0L0 0Z">
    </path>
    <path id="top-right-04"
      d="M0 121.7C-12.3 110 -24.7 98.2 -38.3 92.4C-51.9 86.6 -66.8 86.6 -80.3 80.3C-93.7 73.9 -105.8 61 -112.4 46.6C-119.1 32.1 -120.4 16.1 -121.7 0L0 0Z">
    </path>
    <path id="top-right-05"
      d="M0 81.1C-8.2 73.3 -16.4 65.5 -25.5 61.6C-34.6 57.7 -44.5 57.8 -53.5 53.5C-62.5 49.2 -70.5 40.7 -74.9 31C-79.4 21.4 -80.3 10.7 -81.1 0L0 0Z">
    </path>
    <path id="top-right-06"
      d="M0 40.6C-4.1 36.7 -8.2 32.7 -12.8 30.8C-17.3 28.9 -22.3 28.9 -26.8 26.8C-31.2 24.6 -35.3 20.3 -37.5 15.5C-39.7 10.7 -40.1 5.4 -40.6 0L0 0Z">
    </path>
  </g>
  <g id="bottom-left" transform="translate(0, 600)">
    <path id="bottom-left-01"
      d="M0 -243.4C35.2 -244.4 70.4 -245.3 93.1 -224.8C115.9 -204.3 126.2 -162.4 132.9 -132.9C139.7 -103.5 142.9 -86.6 160.8 -66.6C178.6 -46.5 211 -23.3 243.4 0L0 0Z">
    </path>
    <path id="bottom-left-02"
      d="M0 -202.8C29.3 -203.6 58.7 -204.5 77.6 -187.4C96.6 -170.3 105.1 -135.3 110.8 -110.8C116.4 -86.3 119.1 -72.2 134 -55.5C148.8 -38.8 175.8 -19.4 202.8 0L0 0Z">
    </path>
    <path id="bottom-left-03"
      d="M0 -162.2C23.5 -162.9 46.9 -163.6 62.1 -149.9C77.3 -136.2 84.1 -108.2 88.6 -88.6C93.1 -69 95.3 -57.8 107.2 -44.4C119 -31 140.6 -15.5 162.2 0L0 0Z">
    </path>
    <path id="bottom-left-04"
      d="M0 -121.7C17.6 -122.2 35.2 -122.7 46.6 -112.4C57.9 -102.2 63.1 -81.2 66.5 -66.5C69.9 -51.8 71.5 -43.3 80.4 -33.3C89.3 -23.3 105.5 -11.6 121.7 0L0 0Z">
    </path>
    <path id="bottom-left-05"
      d="M0 -81.1C11.7 -81.5 23.5 -81.8 31 -74.9C38.6 -68.1 42.1 -54.1 44.3 -44.3C46.6 -34.5 47.6 -28.9 53.6 -22.2C59.5 -15.5 70.3 -7.8 81.1 0L0 0Z">
    </path>
    <path id="bottom-left-06"
      d="M0 -40.6C5.9 -40.7 11.7 -40.9 15.5 -37.5C19.3 -34.1 21 -27.1 22.2 -22.2C23.3 -17.3 23.8 -14.4 26.8 -11.1C29.8 -7.8 35.2 -3.9 40.6 0L0 0Z">
    </path>
  </g>
</svg>