<?xml version="1.0" standalone="no"?>
<!DOCTYPE svg PUBLIC "-//W3C//DTD SVG 20010904//EN"
 "http://www.w3.org/TR/2001/REC-SVG-20010904/DTD/svg10.dtd">
<svg version="1.0" xmlns="http://www.w3.org/2000/svg"
 width="958.000000pt" height="958.000000pt" viewBox="0 0 958.000000 958.000000"
 preserveAspectRatio="xMidYMid meet">
<metadata>
Created by potrace 1.14, written by Peter Selinger 2001-2017
</metadata>
<g transform="translate(0.000000,958.000000) scale(0.100000,-0.100000)"
fill="#000000" stroke="none">
<path d="M505 5675 c-293 -65 -457 -242 -457 -496 -1 -184 69 -315 216 -407
72 -46 228 -100 311 -108 108 -10 266 -56 328 -96 86 -55 124 -142 97 -224
-33 -98 -196 -175 -357 -168 -142 7 -216 34 -357 132 -65 46 -85 55 -121 55
-125 0 -188 -141 -108 -241 75 -93 233 -180 381 -211 155 -31 404 -23 497 18
128 56 183 89 240 145 107 105 147 209 141 371 -6 195 -78 309 -243 390 -80
39 -193 71 -384 110 -153 30 -200 46 -261 88 -81 54 -105 149 -62 236 25 49
76 87 149 112 64 22 247 17 321 -8 87 -30 151 -60 209 -99 59 -41 111 -45 162
-13 80 50 89 160 18 235 -57 61 -192 131 -320 166 -90 25 -313 32 -400 13z"/>
<path d="M7240 5670 c-189 -43 -323 -137 -389 -273 -40 -83 -51 -128 -51 -217
0 -142 42 -251 132 -341 83 -84 240 -153 398 -174 266 -36 405 -113 428 -236
20 -108 -64 -199 -219 -237 -167 -41 -334 -3 -504 118 -78 55 -121 66 -174 44
-71 -28 -105 -113 -76 -190 35 -92 226 -214 390 -250 95 -20 318 -28 390 -13
277 57 444 201 491 424 7 30 6 154 -1 198 -27 166 -141 286 -335 351 -51 17
-187 51 -240 60 -63 11 -78 14 -157 36 -90 26 -118 39 -162 76 -44 37 -63 79
-63 139 0 28 7 65 15 82 59 113 250 162 443 113 89 -23 192 -68 242 -107 121
-92 275 31 214 170 -44 99 -245 206 -446 237 -95 15 -236 10 -326 -10z"/>
<path d="M8750 5675 c-227 -51 -370 -160 -432 -331 -29 -80 -31 -244 -4 -324
67 -198 247 -315 544 -355 184 -25 340 -99 376 -178 52 -114 11 -206 -119
-268 -69 -33 -105 -41 -194 -44 -137 -4 -249 34 -395 136 -60 42 -82 51 -114
51 -127 -2 -189 -134 -113 -241 30 -41 133 -117 209 -152 120 -57 208 -73 392
-74 143 0 175 3 245 23 119 35 190 76 275 162 102 101 132 171 137 315 7 222
-71 358 -250 441 -65 29 -202 70 -302 90 -104 20 -106 21 -195 45 -103 27
-168 70 -197 129 -42 81 -24 162 47 223 133 114 436 89 634 -53 74 -53 152
-41 199 32 29 45 33 72 17 130 -22 77 -187 184 -355 228 -105 28 -312 36 -405
15z"/>
<path d="M4205 5665 c-52 -22 -81 -65 -140 -210 -32 -77 -68 -163 -81 -192
-13 -28 -24 -56 -24 -61 0 -5 -6 -22 -14 -38 -8 -16 -44 -101 -81 -189 -36
-88 -75 -179 -86 -202 -10 -24 -19 -45 -19 -48 0 -3 -9 -24 -19 -48 -11 -23
-48 -109 -82 -192 -34 -82 -69 -168 -79 -190 -76 -173 -94 -223 -93 -267 1
-106 99 -157 202 -104 35 19 45 36 130 236 l62 145 369 0 c231 0 373 -4 378
-10 5 -6 29 -55 52 -110 23 -55 49 -116 57 -135 42 -98 76 -135 136 -145 48
-9 115 23 141 66 37 63 28 102 -94 389 -62 146 -122 290 -135 320 -34 83 -154
371 -170 405 -7 17 -59 138 -114 269 -56 132 -108 250 -116 262 -32 49 -124
74 -180 49z m174 -782 c67 -155 121 -283 121 -285 0 -6 -478 -3 -485 3 -5 6
10 45 50 134 7 16 39 91 70 165 32 74 66 154 76 177 11 24 24 55 30 69 5 15
11 25 13 23 2 -2 58 -131 125 -286z"/>
<path d="M6412 5659 c-34 -15 -167 -144 -693 -665 l-156 -155 0 338 c0 186 -3
355 -7 375 -7 40 -36 77 -75 97 -39 21 -125 15 -165 -11 -71 -46 -68 -5 -68
-853 0 -794 -1 -781 41 -827 40 -42 138 -56 192 -28 35 19 67 60 75 95 4 16 8
122 8 235 l1 205 108 105 c60 58 112 106 117 108 8 3 43 -40 310 -393 91 -120
172 -226 180 -236 8 -9 24 -30 35 -46 53 -75 78 -88 159 -84 102 4 175 107
142 200 -10 30 -491 683 -558 757 -10 11 -18 25 -18 31 0 9 86 97 195 199 224
208 365 351 374 377 15 42 14 73 -5 110 -42 81 -110 104 -192 66z"/>
<path d="M1692 5653 c-40 -18 -57 -34 -77 -73 -17 -33 -18 -80 -18 -790 0
-711 1 -757 18 -794 24 -50 67 -76 128 -76 60 0 99 21 126 70 21 37 21 48 21
571 l0 534 43 -68 c23 -38 49 -79 57 -93 156 -253 321 -501 345 -519 59 -45
130 -45 185 1 17 14 69 85 116 157 268 410 319 486 324 487 3 0 5 -236 5 -524
0 -514 0 -525 21 -552 33 -45 67 -64 117 -68 66 -5 125 26 152 79 20 39 20 57
20 800 0 743 -1 761 -20 795 -24 41 -90 78 -132 74 -15 -1 -36 -2 -46 -3 -36
-2 -92 -76 -352 -466 -147 -220 -273 -406 -280 -413 -9 -10 -35 24 -126 163
-63 97 -176 271 -252 388 -76 117 -151 231 -168 255 -48 71 -136 98 -207 65z"/>
</g>
</svg>
