<svg id="visual" viewBox="0 0 900 600" xmlns="http://www.w3.org/2000/svg" xmlns:xlink="http://www.w3.org/1999/xlink"
  version="1.1" preserveAspectRatio="none">
  <path style="fill:var(--button);"
    d="M719 600L735.2 588.8C751.3 577.7 783.7 555.3 798.5 533.2C813.3 511 810.7 489 812.8 466.8C815 444.7 822 422.3 814.3 400C806.7 377.7 784.3 355.3 784.8 333.2C785.3 311 808.7 289 811.8 266.8C815 244.7 798 222.3 791.7 200C785.3 177.7 789.7 155.3 780.5 133.2C771.3 111 748.7 89 749.5 66.8C750.3 44.7 774.7 22.3 786.8 11.2L799 0L900 0L900 11.2C900 22.3 900 44.7 900 66.8C900 89 900 111 900 133.2C900 155.3 900 177.7 900 200C900 222.3 900 244.7 900 266.8C900 289 900 311 900 333.2C900 355.3 900 377.7 900 400C900 422.3 900 444.7 900 466.8C900 489 900 511 900 533.2C900 555.3 900 577.7 900 588.8L900 600Z"
    stroke-linecap="round" stroke-linejoin="miter"></path>
</svg>