<?xml version="1.0" standalone="no"?>
<!DOCTYPE svg PUBLIC "-//W3C//DTD SVG 20010904//EN"
 "http://www.w3.org/TR/2001/REC-SVG-20010904/DTD/svg10.dtd">
<svg version="1.0" xmlns="http://www.w3.org/2000/svg"
 width="958.000000pt" height="958.000000pt" viewBox="0 0 958.000000 958.000000"
 preserveAspectRatio="xMidYMid meet">
<metadata>
Created by potrace 1.14, written by Peter Selinger 2001-2017
</metadata>
<g transform="translate(0.000000,958.000000) scale(0.100000,-0.100000)"
fill="#000000" stroke="none">
<path d="M915 5566 c-106 -29 -159 -54 -222 -104 -102 -82 -153 -191 -153
-332 0 -255 162 -402 501 -456 253 -40 369 -119 357 -243 -6 -56 -28 -89 -83
-126 -60 -39 -138 -58 -235 -57 -116 1 -197 28 -309 102 -96 65 -135 74 -191
45 -44 -23 -60 -53 -60 -112 0 -49 4 -58 41 -98 184 -199 578 -256 859 -123
78 38 186 141 218 210 45 97 54 204 26 312 -48 188 -167 266 -517 337 -81 16
-172 39 -202 50 -104 39 -155 116 -135 203 13 58 39 87 105 121 56 28 68 30
170 30 97 0 120 -3 195 -31 47 -16 111 -47 141 -67 38 -25 67 -37 91 -37 50 0
100 37 117 87 13 36 13 45 -3 87 -14 37 -31 56 -81 91 -80 57 -133 80 -252
111 -127 32 -264 32 -378 0z"/>
<path d="M6957 5565 c-48 -14 -102 -32 -120 -41 -192 -98 -285 -302 -231 -509
49 -189 200 -295 486 -340 181 -29 296 -79 338 -147 24 -40 26 -117 4 -159
-34 -66 -166 -122 -289 -122 -119 0 -248 43 -335 112 -51 41 -74 51 -115 51
-75 0 -125 -51 -125 -127 0 -50 27 -92 91 -143 261 -206 716 -199 934 15 83
81 118 163 123 287 11 271 -132 405 -504 473 -263 48 -354 107 -354 229 0 202
338 250 609 87 86 -53 127 -54 177 -8 28 26 37 42 41 77 6 66 -19 106 -101
162 -174 119 -421 159 -629 103z"/>
<path d="M8310 5569 c-169 -43 -275 -122 -337 -247 -37 -74 -38 -78 -38 -186
1 -132 22 -197 86 -270 86 -97 203 -151 406 -186 245 -43 343 -99 363 -210 21
-115 -92 -208 -275 -226 -116 -11 -269 38 -379 122 -89 68 -179 55 -217 -32
-27 -59 -13 -110 43 -165 118 -114 305 -179 516 -179 254 1 459 106 544 278
32 65 33 70 33 197 0 120 -2 134 -27 187 -54 117 -168 188 -381 239 -67 16
-160 38 -207 49 -100 23 -185 64 -213 101 -24 33 -35 93 -26 137 9 46 72 108
128 127 147 51 340 15 503 -92 66 -44 137 -28 178 40 42 68 17 137 -75 203
-80 56 -133 80 -252 110 -122 31 -263 32 -373 3z"/>
<path d="M4265 5566 c-43 -19 -69 -52 -100 -126 -51 -122 -487 -1155 -517
-1224 -34 -77 -35 -141 -3 -176 24 -26 79 -43 115 -35 58 13 83 46 150 204
l64 151 335 -2 335 -3 62 -140 c70 -157 102 -200 156 -210 46 -9 103 17 130
59 31 51 19 101 -80 331 -49 116 -147 345 -217 510 -207 487 -246 578 -262
608 -15 29 -81 67 -118 66 -11 0 -33 -6 -50 -13z m58 -463 c3 -10 49 -117 102
-238 53 -121 99 -226 102 -232 4 -10 -43 -13 -216 -13 -122 0 -221 2 -221 4 0
3 25 62 56 133 30 70 78 181 106 246 27 64 53 117 58 117 4 0 10 -8 13 -17z"/>
<path d="M6248 5562 c-20 -9 -195 -171 -400 -370 l-363 -353 -5 323 c-4 236
-8 329 -18 345 -19 34 -65 53 -127 53 -49 0 -59 -4 -93 -34 l-37 -34 -3 -689
c-3 -776 -7 -734 73 -773 51 -25 78 -25 132 -1 68 31 73 50 73 274 l0 194 99
96 c55 54 104 97 109 97 5 0 121 -146 258 -325 224 -292 253 -327 291 -341 58
-22 121 -6 163 43 38 43 41 109 9 163 -12 19 -129 175 -260 347 -132 171 -239
316 -239 321 0 6 24 32 53 58 192 176 435 409 449 432 36 55 10 142 -53 174
-42 22 -64 22 -111 0z"/>
<path d="M2004 5552 c-17 -11 -40 -32 -52 -47 l-22 -28 0 -686 c0 -661 1 -687
19 -715 26 -39 57 -55 108 -56 52 0 88 15 110 49 16 24 18 69 23 505 l5 479
174 -274 c96 -151 192 -291 212 -311 33 -34 42 -38 87 -38 40 0 57 5 82 27 18
15 115 151 216 302 l184 276 0 -458 c0 -497 -1 -491 56 -536 60 -47 166 -30
205 33 18 30 19 59 19 714 0 767 4 728 -73 763 -52 23 -77 24 -121 2 -29 -13
-81 -84 -291 -395 -141 -208 -261 -378 -265 -378 -4 0 -118 167 -252 371 -133
204 -255 380 -270 390 -41 30 -116 35 -154 11z"/>
</g>
</svg>
