<svg id="horizontal-wave" viewBox="0 0 900 600" xmlns="http://www.w3.org/2000/svg"
  xmlns:xlink="http://www.w3.org/1999/xlink" version="1.1" preserveAspectRatio="none">
  <path
    d="M179 0L176.2 10C173.3 20 167.7 40 166.5 60C165.3 80 168.7 100 164.5 120C160.3 140 148.7 160 135.8 180C123 200 109 220 101 240C93 260 91 280 90.3 300C89.7 320 90.3 340 94 360C97.7 380 104.3 400 105.2 420C106 440 101 460 107.3 480C113.7 500 131.3 520 141.3 540C151.3 560 153.7 580 154.8 590L156 600L0 600L0 590C0 580 0 560 0 540C0 520 0 500 0 480C0 460 0 440 0 420C0 400 0 380 0 360C0 340 0 320 0 300C0 280 0 260 0 240C0 220 0 200 0 180C0 160 0 140 0 120C0 100 0 80 0 60C0 40 0 20 0 10L0 0Z"
    fill="#bfbfbf" stroke-linecap="round" stroke-linejoin="miter"></path>
</svg>