<svg xmlns="http://www.w3.org/2000/svg" viewBox="0 0 382 382">
	<rect class="background" width="382" height="382" rx="34.56" />
	<g class="in">
		<rect x="55.29" y="140.35" width="62.92" height="199.55" rx="10.06" />
		<circle cx="86.75" cy="82.77" r="40.67" />
		<path d="M341.91,330.65a9.25,9.25,0,0,1-9.25,9.25H286.73a9.25,9.25,0,0,1-9.25-9.25V246.49c0-12.56,3.69-55-32.81-55-28.31,0-34,29.07-35.2,42.11v97.08a9.25,9.25,0,0,1-9.25,9.25H155.8a9.25,9.25,0,0,1-9.25-9.25V149.59a9.25,9.25,0,0,1,9.25-9.24h44.42a9.25,9.25,0,0,1,9.25,9.24v15.66c10.49-15.76,26.09-27.91,59.31-27.91,73.55,0,73.13,68.71,73.13,106.47v86.84Z" />
	</g>
</svg>
