<svg viewBox="0 0 512 512" xmlns="http://www.w3.org/2000/svg">
	<g>
		<path d="m256 7.5c-82.02 0-148.51 66.49-148.51 148.51v46.876c31.641-22.791 63.565-23.108 95.784 0 35.151-22.949 70.302-22.949 105.452 0 33.011-22.139 65.018-23.76 95.784 0v-46.876c0-82.02-66.49-148.51-148.51-148.51z" />
		<g>
			<path d="m256 7.5c-4.886 0-9.715.243-14.479.704 75.224 7.279 134.031 70.672 134.031 147.806v31.958c9.767 2.633 19.423 7.553 28.959 14.918v-46.876c-.001-82.02-66.491-148.51-148.511-148.51z" />
		</g>
		<path d="m351.757 504.5h-191.514c-5.97 0-10.809-4.839-10.809-10.809v-109.442c0-5.97 4.839-10.809 10.809-10.809h191.514c5.97 0 10.809 4.839 10.809 10.809v109.442c0 5.97-4.839 10.809-10.809 10.809z" />
		<path d="m351.757 373.44h-22.27c5.97 0 10.809 4.839 10.809 10.809v109.442c0 5.97-4.839 10.809-10.809 10.809h22.27c5.97 0 10.809-4.839 10.809-10.809v-109.442c0-5.97-4.839-10.809-10.809-10.809z" />
		<g>
			<path d="m271.755 408.249h-31.51c-2.48 0-4.491-2.011-4.491-4.491v-30.318h40.491v30.318c0 2.48-2.01 4.491-4.49 4.491z" />
			<path d="m261.208 373.44v30.318c0 2.48-2.011 4.491-4.491 4.491h15.038c2.48 0 4.491-2.011 4.491-4.491v-30.318z" />
		</g>
		<g>
			<path d="m314.58 478.352 18.097-17.614c1.45-1.411 2.269-3.35 2.269-5.374s-.818-3.963-2.269-5.375l-18.097-17.613c-2.97-2.891-7.718-2.823-10.606.144-2.889 2.969-2.824 7.717.144 10.606l12.575 12.238-12.575 12.24c-2.968 2.889-3.032 7.637-.143 10.605 2.887 2.968 7.636 3.032 10.605.143z" />
			<path d="m224.888 455.314h-39.848c-4.143 0-7.5 3.357-7.5 7.5s3.357 7.5 7.5 7.5h39.848c4.143 0 7.5-3.357 7.5-7.5s-3.357-7.5-7.5-7.5z" />
			<path d="m412.01 202.887v-46.877c0-86.025-69.986-156.01-156.01-156.01-30.012 0-59.158 8.545-84.288 24.71-24.463 15.736-44.012 37.897-56.533 64.086-1.786 3.737-.205 8.215 3.531 10.002 3.735 1.786 8.215.205 10.002-3.531 11.319-23.676 28.995-43.712 51.115-57.941 11.768-7.57 24.518-13.273 37.843-17.027-13.531 15.682-21.895 37.443-21.895 54.079v114.888c-26.893-14.865-53.971-14.883-80.784-.032v-33.224c0-11.207 1.329-22.39 3.949-33.236.973-4.026-1.502-8.079-5.528-9.052-4.031-.976-8.08 1.503-9.052 5.528-2.899 11.999-4.369 24.367-4.369 36.76v46.877c0 1.373.462 2.868 1.105 3.917l96.799 159.137h-37.65c-10.096 0-18.31 8.213-18.31 18.309v109.442c0 10.096 8.214 18.309 18.31 18.309h125.531c4.143 0 7.5-3.357 7.5-7.5s-3.357-7.5-7.5-7.5h-125.533c-1.825 0-3.31-1.484-3.31-3.309v-109.443c0-1.824 1.484-3.309 3.31-3.309h68.012v22.817c0 6.612 5.379 11.991 11.99 11.991h31.51c6.612 0 11.991-5.379 11.991-11.991v-22.817h68.012c1.824 0 3.309 1.484 3.309 3.309v109.442c0 1.824-1.484 3.309-3.309 3.309h-35.996c-4.143 0-7.5 3.357-7.5 7.5s3.357 7.5 7.5 7.5h35.996c10.096 0 18.309-8.213 18.309-18.309v-109.442c0-10.096-8.213-18.309-18.309-18.309h-37.65l96.769-159.088s.001-.001.001-.001c.045-.104 1.132-1.709 1.132-3.964zm-15-46.877v32.838c-25.487-14.551-52.563-14.283-80.784.785v-115.256c0-14.625-6.445-32.818-16.821-47.479-1.671-2.361-3.404-4.563-5.184-6.631 59.242 16.703 102.789 71.232 102.789 135.743zm-144.375 209.93-40.734-159.58c29.626-17.6 58.575-17.6 88.199 0l-40.735 159.58zm3.365-350.94c24.089 0 45.227 37.008 45.227 59.377v115.453c-30.06-15.565-60.39-15.567-90.452-.001v-115.452c-.001-22.369 21.137-59.377 45.225-59.377zm-138.382 190.106c26.481-16.622 52.434-15.84 79.081 2.342l40.456 158.492h-21.706zm151.128 195.643h-25.491v-19.809h25.491zm6.099-34.809 40.424-158.367c28.45-18.211 54.452-19.094 79.221-2.646l-97.94 161.013z" />
		</g>
	</g>
</svg>
