<svg xmlns="http://www.w3.org/2000/svg" viewBox="0 0 228.84 43.2">
	<path id="first-S" d="M15.62,43.2a25.43,25.43,0,0,1-7.56-1,18.28,18.28,0,0,1-6.44-3.74A4.82,4.82,0,0,1,.42,37,3.8,3.8,0,0,1,0,35.28a3.44,3.44,0,0,1,1-2.43,3.25,3.25,0,0,1,2.49-1,3.11,3.11,0,0,1,2,.72A19.64,19.64,0,0,0,10,35.39a14.22,14.22,0,0,0,5.55,1,11.82,11.82,0,0,0,4.08-.69,8.06,8.06,0,0,0,3-1.86,3.71,3.71,0,0,0,1.14-2.67,4.5,4.5,0,0,0-1.08-3.06A8.11,8.11,0,0,0,19.41,26a24.8,24.8,0,0,0-5.64-1.35,25.55,25.55,0,0,1-5.7-1.47A13.28,13.28,0,0,1,4,20.64,9.88,9.88,0,0,1,1.47,17a12.32,12.32,0,0,1-.84-4.65,11,11,0,0,1,2-6.66,12.68,12.68,0,0,1,5.43-4.2A19.34,19.34,0,0,1,15.67,0,21.68,21.68,0,0,1,22.9,1.2a16.9,16.9,0,0,1,5.43,3,4,4,0,0,1,1.74,3.18,3.39,3.39,0,0,1-1,2.4,3.19,3.19,0,0,1-2.45,1A2.59,2.59,0,0,1,25,10.26a10.87,10.87,0,0,0-2.58-1.59A23,23,0,0,0,19,7.41a13,13,0,0,0-7.71.15,6,6,0,0,0-2.67,1.8A4.14,4.14,0,0,0,7.72,12a4.32,4.32,0,0,0,1,3,7.17,7.17,0,0,0,3,1.86,34.34,34.34,0,0,0,4.9,1.2A47.55,47.55,0,0,1,23,19.62a14.6,14.6,0,0,1,4.53,2.31,8.72,8.72,0,0,1,2.7,3.54,13.31,13.31,0,0,1,.9,5.19,10.72,10.72,0,0,1-2.16,6.72,13.8,13.8,0,0,1-5.67,4.32A19.37,19.37,0,0,1,15.62,43.2Z" />
	<path id="M" d="M41.71.54A4.18,4.18,0,0,1,43.48,1,3.52,3.52,0,0,1,44.89,2.2L59.47,24.6l-3-.12L71.41,2.2A3.48,3.48,0,0,1,74.35.58a3.78,3.78,0,0,1,2.58,1A3.36,3.36,0,0,1,78.07,4.2V38.94a3.54,3.54,0,0,1-3.41,3.66h-.31a3.72,3.72,0,0,1-2.73-1,3.53,3.53,0,0,1-1-2.61V10.68l2.34.54L60.67,29.88A5.12,5.12,0,0,1,59.32,31a2.89,2.89,0,0,1-1.65.42A2.7,2.7,0,0,1,56.08,31a5.28,5.28,0,0,1-1.35-1.14L43.27,11.76l1.56-3.18V38.94a3.78,3.78,0,0,1-1,2.61,3.29,3.29,0,0,1-2.52,1,3.21,3.21,0,0,1-2.46-1,3.73,3.73,0,0,1-1-2.61V4.2A3.45,3.45,0,0,1,39,1.62,3.68,3.68,0,0,1,41.71.54Z" />
	<path id="A" d="M102.48,10l-13,30.48a3.73,3.73,0,0,1-1.29,1.77,3.27,3.27,0,0,1-1.89.63,3,3,0,0,1-2.4-.9,3.33,3.33,0,0,1-.78-2.22,4.31,4.31,0,0,1,.18-1.14L98.28,2.76A3.91,3.91,0,0,1,99.75.9a3.16,3.16,0,0,1,2.13-.54,3.47,3.47,0,0,1,2,.63,3.55,3.55,0,0,1,1.35,1.77L120,37.92a3.9,3.9,0,0,1,.3,1.44A3.42,3.42,0,0,1,117,42.89h0a3.21,3.21,0,0,1-2-.66,4.36,4.36,0,0,1-1.35-1.8l-12.9-30.06ZM91.38,33.2l3.3-6.9h16.2L112,33.2Z" />
	<path id="K" d="M129.12,42.6a3.54,3.54,0,0,1-3.71-3.36c0-.1,0-.2,0-.3V4.26a3.52,3.52,0,0,1,1.08-2.61,3.82,3.82,0,0,1,2.76-1,3.48,3.48,0,0,1,2.67,1,3.61,3.61,0,0,1,1,2.61V38.94a3.63,3.63,0,0,1-1,2.61A3.7,3.7,0,0,1,129.12,42.6ZM155,.3a2.89,2.89,0,0,1,2.37,1.17,3.73,3.73,0,0,1,.93,2.37,3.27,3.27,0,0,1-1.08,2.36l-25.14,24-.3-8.58,20.28-20A4.17,4.17,0,0,1,155,.3Zm-.72,42.3a3.23,3.23,0,0,1-2.7-1.4L137.76,23l5.46-5.58,14.34,19a4,4,0,0,1,.84,2.46,3.38,3.38,0,0,1-1.26,2.73A4.32,4.32,0,0,1,154.32,42.6Z" />
	<path id="second-S" d="M177.62,43.2a25.47,25.47,0,0,1-7.56-1,18.37,18.37,0,0,1-6.44-3.74,5.13,5.13,0,0,1-1.2-1.5,3.8,3.8,0,0,1-.42-1.68,3.44,3.44,0,0,1,1-2.43,3.25,3.25,0,0,1,2.49-1,3.11,3.11,0,0,1,2,.72A19.64,19.64,0,0,0,172,35.39a14.28,14.28,0,0,0,5.55,1,11.78,11.78,0,0,0,4.08-.69,8,8,0,0,0,3-1.86,3.71,3.71,0,0,0,1.14-2.67,4.5,4.5,0,0,0-1.08-3.06,8.11,8.11,0,0,0-3.3-2.13,24.8,24.8,0,0,0-5.64-1.35,25.55,25.55,0,0,1-5.7-1.47A13.4,13.4,0,0,1,166,20.64a10.13,10.13,0,0,1-2.49-3.6,12.39,12.39,0,0,1-.85-4.74,11,11,0,0,1,2-6.66,12.68,12.68,0,0,1,5.43-4.2A19.45,19.45,0,0,1,177.62,0a21.62,21.62,0,0,1,7.27,1.2,16.8,16.8,0,0,1,5.43,3,4,4,0,0,1,1.74,3.18,3.39,3.39,0,0,1-1,2.4,3.15,3.15,0,0,1-2.44,1,2.59,2.59,0,0,1-1.62-.54,10.87,10.87,0,0,0-2.58-1.59A22.56,22.56,0,0,0,181,7.41a12,12,0,0,0-3.38-.51,12.63,12.63,0,0,0-4.35.66,6.1,6.1,0,0,0-2.67,1.8,4.2,4.2,0,0,0-.9,2.64,4.32,4.32,0,0,0,1,3,7.17,7.17,0,0,0,3,1.86,35.49,35.49,0,0,0,4.74,1.23,47.17,47.17,0,0,1,6.33,1.56A14.49,14.49,0,0,1,189.3,22,8.72,8.72,0,0,1,192,25.5a13.12,13.12,0,0,1,.9,5.19,10.72,10.72,0,0,1-2.16,6.72,13.8,13.8,0,0,1-5.67,4.32A19.22,19.22,0,0,1,177.62,43.2Z" />
	<path id="third-S" d="M213.42,43.2a25.47,25.47,0,0,1-7.56-1,18.4,18.4,0,0,1-6.42-3.69,5.13,5.13,0,0,1-1.2-1.5,3.8,3.8,0,0,1-.42-1.68,3.44,3.44,0,0,1,1-2.43,3.25,3.25,0,0,1,2.49-1,3.11,3.11,0,0,1,2,.72,19.86,19.86,0,0,0,4.53,2.82,14.28,14.28,0,0,0,5.55,1,11.74,11.74,0,0,0,4.08-.69,8,8,0,0,0,3-1.86,3.69,3.69,0,0,0,1.15-2.81A4.5,4.5,0,0,0,220.54,28a8.11,8.11,0,0,0-3.3-2.13,25.17,25.17,0,0,0-5.62-1.35,25.55,25.55,0,0,1-5.7-1.47,13.4,13.4,0,0,1-4.11-2.52,10.13,10.13,0,0,1-2.49-3.6,12.51,12.51,0,0,1-.84-4.65,11.07,11.07,0,0,1,2-6.66,12.68,12.68,0,0,1,5.43-4.2A19.4,19.4,0,0,1,213.47,0a21.7,21.7,0,0,1,7.24,1.2,16.7,16.7,0,0,1,5.43,3,4,4,0,0,1,1.75,3.18,3.48,3.48,0,0,1-1,2.4,3.22,3.22,0,0,1-2.41,1.08,2.59,2.59,0,0,1-1.62-.54,10.67,10.67,0,0,0-2.58-1.59,22.56,22.56,0,0,0-3.42-1.26,13,13,0,0,0-7.71.15,6.1,6.1,0,0,0-2.67,1.8,4.2,4.2,0,0,0-.9,2.64,4.33,4.33,0,0,0,1,3,7.17,7.17,0,0,0,3,1.86,35.49,35.49,0,0,0,4.74,1.23,47.17,47.17,0,0,1,6.33,1.56A14.49,14.49,0,0,1,225.23,22a8.66,8.66,0,0,1,2.71,3.54,13.49,13.49,0,0,1,.9,5.19,10.84,10.84,0,0,1-2.16,6.72A13.9,13.9,0,0,1,221,41.79,19.26,19.26,0,0,1,213.42,43.2Z" />
</svg>
