<svg version="1.1" xmlns="http://www.w3.org/2000/svg" xmlns:xlink="http://www.w3.org/1999/xlink" x="0px" y="0px" viewBox="0 0 512 512" xml:space="preserve">
	<path d="M340.645,256.734v49.584h44.075l-11.019-82.64C355.445,223.678,340.645,238.479,340.645,256.734z" />
	<path d="M406.756,256.734c0-18.256-14.799-33.056-33.056-33.056v82.64l33.056-33.056V256.734z" />
	<path d="M241.477,190.623c-18.257,0-33.056,14.799-33.056,33.056l-22.037,82.64H296.57l-22.037-82.64
	C274.533,205.422,259.734,190.623,241.477,190.623z" />
	<g>
		<path d="M307.589,207.15c-18.257,0-33.056,14.8-33.056,33.056v66.112h66.112v-66.112
		C340.645,221.951,325.845,207.15,307.589,207.15z" />
		<path d="M175.365,74.376c-18.257,0-33.056,14.799-33.056,33.056v198.887h66.112V107.432
		C208.421,89.175,193.622,74.376,175.365,74.376z" />
		<path d="M375.905,273.262L258.006,504.654c82.153,0,148.752-66.599,148.752-148.752v-82.64H375.905z" />
	</g>
	<path d="M142.309,273.262c-18.257,0-33.056,14.8-33.056,33.056v49.584
	c0,82.154,66.599,148.752,148.752,148.752c63.897,0,115.696-66.598,115.696-148.752v-82.64H142.309z" />
	<g>
		<path d="M175.365,49.584c-4.564,0-8.264-3.699-8.264-8.264V8.264c0-4.565,3.7-8.264,8.264-8.264
		s8.264,3.699,8.264,8.264V41.32C183.629,45.885,179.929,49.584,175.365,49.584z" />
		<path d="M128.617,73.184c-2.114,0-4.23-0.807-5.843-2.42L99.4,47.389c-3.227-3.228-3.227-8.46,0-11.687
		c3.227-3.226,8.46-3.226,11.686,0l23.374,23.375c3.227,3.228,3.227,8.46,0,11.687C132.847,72.377,130.733,73.184,128.617,73.184z" />
		<path d="M222.114,73.184c-2.114,0-4.23-0.807-5.843-2.42c-3.227-3.228-3.227-8.46,0-11.687L239.644,35.7
		c3.227-3.226,8.46-3.226,11.686,0c3.227,3.228,3.227,8.46,0,11.687l-23.374,23.375C226.344,72.377,224.228,73.184,222.114,73.184z" />
	</g>
	<path d="M373.7,215.414c-10.495,0-20.083,3.939-27.378,10.409c-5.854-15.714-21.006-26.937-38.734-26.937
	c-10.495,0-20.083,3.939-27.378,10.409c-5.854-15.714-21.006-26.937-38.734-26.937c-9.295,0-17.881,3.086-24.792,8.287v-83.214
	c0-22.784-18.536-41.32-41.32-41.32s-41.32,18.536-41.32,41.32V265.83c-18.837,3.839-33.056,20.533-33.056,40.488v49.584
	c0,80.163,60.006,147.249,139.58,156.046c0.309,0.034,0.615,0.052,0.918,0.052c4.156,0,7.736-3.129,8.203-7.357
	c0.501-4.536-2.769-8.62-7.305-9.121c-71.186-7.872-124.868-67.894-124.868-139.619v-49.584c0-10.773,6.91-19.959,16.528-23.371
	v56.426c0,4.565,3.7,8.264,8.264,8.264s8.264-3.699,8.264-8.264V107.432c0-13.67,11.121-24.792,24.792-24.792
	c13.671,0,24.792,11.122,24.792,24.792v165.831c0,4.565,3.7,8.264,8.264,8.264s8.264-3.699,8.264-8.264v-49.584
	c0-13.67,11.121-24.792,24.792-24.792c13.671,0,24.792,11.122,24.792,24.792v49.584c0,4.565,3.7,8.264,8.264,8.264
	c4.564,0,8.264-3.699,8.264-8.264v-33.056c0-13.67,11.121-24.792,24.792-24.792c13.671,0,24.792,11.122,24.792,24.792v33.056
	c0,4.565,3.7,8.264,8.264,8.264c4.564,0,8.264-3.699,8.264-8.264v-16.528c0-13.67,11.121-24.792,24.792-24.792
	s24.792,11.122,24.792,24.792v99.168c0,71.726-53.682,131.748-124.868,139.619c-4.536,0.501-7.807,4.585-7.305,9.121
	c0.467,4.228,4.046,7.357,8.203,7.357c0.303,0,0.61-0.018,0.918-0.051c79.573-8.798,139.58-75.884,139.58-156.047v-99.168
	C415.02,233.95,396.485,215.414,373.7,215.414z" />
</svg>
